<?xml version="1.0" encoding="us-ascii" standalone="no"?><svg xmlns="http://www.w3.org/2000/svg" xmlns:xlink="http://www.w3.org/1999/xlink" contentStyleType="text/css" height="543px" preserveAspectRatio="none" style="width:601px;height:543px;" version="1.1" viewBox="0 0 601 543" width="601px" zoomAndPan="magnify"><defs/><g><line style="stroke:#181818;stroke-width:0.5;stroke-dasharray:5.0,5.0;" x1="67" x2="67" y1="81.2969" y2="462.7578"/><line style="stroke:#181818;stroke-width:0.5;stroke-dasharray:5.0,5.0;" x1="304" x2="304" y1="81.2969" y2="462.7578"/><line style="stroke:#181818;stroke-width:0.5;stroke-dasharray:5.0,5.0;" x1="551.5" x2="551.5" y1="81.2969" y2="462.7578"/><text fill="#000000" font-family="sans-serif" font-size="14" lengthAdjust="spacing" textLength="119" x="5" y="77.9951">Content Creator</text><ellipse cx="67.5" cy="13.5" fill="#E2E2F0" rx="8" ry="8" style="stroke:#181818;stroke-width:0.5;"/><path d="M67.5,21.5 L67.5,48.5 M54.5,29.5 L80.5,29.5 M67.5,48.5 L54.5,63.5 M67.5,48.5 L80.5,63.5 " fill="none" style="stroke:#181818;stroke-width:0.5;"/><text fill="#000000" font-family="sans-serif" font-size="14" lengthAdjust="spacing" textLength="119" x="5" y="474.7529">Content Creator</text><ellipse cx="67.5" cy="486.5547" fill="#E2E2F0" rx="8" ry="8" style="stroke:#181818;stroke-width:0.5;"/><path d="M67.5,494.5547 L67.5,521.5547 M54.5,502.5547 L80.5,502.5547 M67.5,521.5547 L54.5,536.5547 M67.5,521.5547 L80.5,536.5547 " fill="none" style="stroke:#181818;stroke-width:0.5;"/><rect fill="#E2E2F0" height="30.2969" rx="2.5" ry="2.5" style="stroke:#181818;stroke-width:0.5;" width="73" x="268" y="50"/><text fill="#000000" font-family="sans-serif" font-size="14" lengthAdjust="spacing" textLength="59" x="275" y="69.9951">PaySubs</text><rect fill="#E2E2F0" height="30.2969" rx="2.5" ry="2.5" style="stroke:#181818;stroke-width:0.5;" width="73" x="268" y="461.7578"/><text fill="#000000" font-family="sans-serif" font-size="14" lengthAdjust="spacing" textLength="59" x="275" y="481.7529">PaySubs</text><text fill="#000000" font-family="sans-serif" font-size="14" lengthAdjust="spacing" textLength="70" x="513.5" y="77.9951">Customer</text><ellipse cx="551.5" cy="13.5" fill="#E2E2F0" rx="8" ry="8" style="stroke:#181818;stroke-width:0.5;"/><path d="M551.5,21.5 L551.5,48.5 M538.5,29.5 L564.5,29.5 M551.5,48.5 L538.5,63.5 M551.5,48.5 L564.5,63.5 " fill="none" style="stroke:#181818;stroke-width:0.5;"/><text fill="#000000" font-family="sans-serif" font-size="14" lengthAdjust="spacing" textLength="70" x="513.5" y="474.7529">Customer</text><ellipse cx="551.5" cy="486.5547" fill="#E2E2F0" rx="8" ry="8" style="stroke:#181818;stroke-width:0.5;"/><path d="M551.5,494.5547 L551.5,521.5547 M538.5,502.5547 L564.5,502.5547 M551.5,521.5547 L538.5,536.5547 M551.5,521.5547 L564.5,536.5547 " fill="none" style="stroke:#181818;stroke-width:0.5;"/><rect fill="#EEEEEE" height="3" style="stroke:#EEEEEE;stroke-width:1.0;" width="594.5" x="0" y="111.8633"/><line style="stroke:#000000;stroke-width:1.0;" x1="0" x2="594.5" y1="111.8633" y2="111.8633"/><line style="stroke:#000000;stroke-width:1.0;" x1="0" x2="594.5" y1="114.8633" y2="114.8633"/><rect fill="#EEEEEE" height="23.1328" style="stroke:#000000;stroke-width:2.0;" width="224" x="185.25" y="101.2969"/><text fill="#000000" font-family="sans-serif" font-size="13" font-weight="bold" lengthAdjust="spacing" textLength="205" x="191.25" y="117.3638">Subscription Creation Flow</text><polygon fill="#181818" points="292.5,151.5625,302.5,155.5625,292.5,159.5625,296.5,155.5625" style="stroke:#181818;stroke-width:1.0;"/><line style="stroke:#181818;stroke-width:1.0;" x1="67.5" x2="298.5" y1="155.5625" y2="155.5625"/><text fill="#000000" font-family="sans-serif" font-size="13" lengthAdjust="spacing" textLength="183" x="74.5" y="150.4966">Create Subscription Package</text><polygon fill="#181818" points="78.5,180.6953,68.5,184.6953,78.5,188.6953,74.5,184.6953" style="stroke:#181818;stroke-width:1.0;"/><line style="stroke:#181818;stroke-width:1.0;" x1="72.5" x2="303.5" y1="184.6953" y2="184.6953"/><text fill="#000000" font-family="sans-serif" font-size="13" lengthAdjust="spacing" textLength="130" x="84.5" y="179.6294">Generate Share Link</text><polygon fill="#181818" points="539.5,209.8281,549.5,213.8281,539.5,217.8281,543.5,213.8281" style="stroke:#181818;stroke-width:1.0;"/><line style="stroke:#181818;stroke-width:1.0;" x1="67.5" x2="545.5" y1="213.8281" y2="213.8281"/><text fill="#000000" font-family="sans-serif" font-size="13" lengthAdjust="spacing" textLength="66" x="74.5" y="208.7622">Share Link</text><rect fill="#EEEEEE" height="3" style="stroke:#EEEEEE;stroke-width:1.0;" width="594.5" x="0" y="242.3945"/><line style="stroke:#000000;stroke-width:1.0;" x1="0" x2="594.5" y1="242.3945" y2="242.3945"/><line style="stroke:#000000;stroke-width:1.0;" x1="0" x2="594.5" y1="245.3945" y2="245.3945"/><rect fill="#EEEEEE" height="23.1328" style="stroke:#000000;stroke-width:2.0;" width="270" x="162.25" y="231.8281"/><text fill="#000000" font-family="sans-serif" font-size="13" font-weight="bold" lengthAdjust="spacing" textLength="251" x="168.25" y="247.895">Customer's Subscription Process</text><polygon fill="#181818" points="315.5,282.0938,305.5,286.0938,315.5,290.0938,311.5,286.0938" style="stroke:#181818;stroke-width:1.0;"/><line style="stroke:#181818;stroke-width:1.0;" x1="309.5" x2="550.5" y1="286.0938" y2="286.0938"/><text fill="#000000" font-family="sans-serif" font-size="13" lengthAdjust="spacing" textLength="85" x="321.5" y="281.0278">Clicks on Link</text><polygon fill="#181818" points="539.5,311.2266,549.5,315.2266,539.5,319.2266,543.5,315.2266" style="stroke:#181818;stroke-width:1.0;"/><line style="stroke:#181818;stroke-width:1.0;" x1="304.5" x2="545.5" y1="315.2266" y2="315.2266"/><text fill="#000000" font-family="sans-serif" font-size="13" lengthAdjust="spacing" textLength="223" x="311.5" y="310.1606">Show Subscription Package Details</text><polygon fill="#181818" points="315.5,340.3594,305.5,344.3594,315.5,348.3594,311.5,344.3594" style="stroke:#181818;stroke-width:1.0;"/><line style="stroke:#181818;stroke-width:1.0;" x1="309.5" x2="550.5" y1="344.3594" y2="344.3594"/><text fill="#000000" font-family="sans-serif" font-size="13" lengthAdjust="spacing" textLength="102" x="321.5" y="339.2935">Clicks Subscribe</text><line style="stroke:#181818;stroke-width:1.0;" x1="304.5" x2="346.5" y1="373.4922" y2="373.4922"/><line style="stroke:#181818;stroke-width:1.0;" x1="346.5" x2="346.5" y1="373.4922" y2="386.4922"/><line style="stroke:#181818;stroke-width:1.0;" x1="305.5" x2="346.5" y1="386.4922" y2="386.4922"/><polygon fill="#181818" points="315.5,382.4922,305.5,386.4922,315.5,390.4922,311.5,386.4922" style="stroke:#181818;stroke-width:1.0;"/><text fill="#000000" font-family="sans-serif" font-size="13" lengthAdjust="spacing" textLength="112" x="311.5" y="368.4263">Process Payment</text><polygon fill="#181818" points="78.5,411.625,68.5,415.625,78.5,419.625,74.5,415.625" style="stroke:#181818;stroke-width:1.0;"/><line style="stroke:#181818;stroke-width:1.0;" x1="72.5" x2="303.5" y1="415.625" y2="415.625"/><text fill="#000000" font-family="sans-serif" font-size="13" lengthAdjust="spacing" textLength="213" x="84.5" y="410.5591">Add Customer to Subscribers List</text><polygon fill="#181818" points="539.5,440.7578,549.5,444.7578,539.5,448.7578,543.5,444.7578" style="stroke:#181818;stroke-width:1.0;"/><line style="stroke:#181818;stroke-width:1.0;" x1="304.5" x2="545.5" y1="444.7578" y2="444.7578"/><text fill="#000000" font-family="sans-serif" font-size="13" lengthAdjust="spacing" textLength="150" x="311.5" y="439.6919">Subscription Successful</text><!--SRC=[ZL9BZi8m3Dtd55Oti-82bOeq0i661L9FO8A7YTecLUmASNlIDXq2qmfsJkptSu9Qd8TiuwoG5TXumd2H0JBeiLOjUZ7Qj1ZwsH5lPNVYOO13eRrfnJXRtbYeKHZfEXRNKEI91wMA0ie4CwhrnQvsLoWAfQ8chDOpxFa8e6UI8-eABwJ-p_SiaJ27FLdo0_WNFS71s2fLcqpcQRytF4NvuXTPxpGnZwxZpABjskYA8Q06sWMdYOEmZRcCi2L1K_F7Yf7ajBITEUWKBBnq4xx4kxr-dyz_Em9n3qdF8ItB-xHfqBBJlVXFLzy1]--></g></svg>